<svg xmlns="http://www.w3.org/2000/svg" width="192" height="192" viewBox="0 0 192 192">
  <title>YuvaTravel Compass Mark — Light on Dark</title>
  <circle cx="96" cy="96" r="68" fill="none" stroke="#F5EFE3" stroke-width="1.0" opacity="0.4"></circle>
  <path d="M96,28 C98,56 112,76 144,80 C112,84 98,104 96,132 C94,104 80,84 48,80 C80,76 94,56 96,28 Z" fill="#F5EFE3"></path>
  <path d="M96,28 C96,52 106,68 120,60 C110,66 96,76 96,80 Z" fill="#F5EFE3" opacity="0.3"></path>
  <path d="M144,80 C120,80 104,90 112,106 C106,96 96,80 96,80 Z" fill="#F5EFE3" opacity="0.3"></path>
  <path d="M96,132 C96,108 86,92 72,100 C82,94 96,80 96,80 Z" fill="#F5EFE3" opacity="0.3"></path>
  <path d="M48,80 C72,80 88,70 80,54 C86,64 96,80 96,80 Z" fill="#F5EFE3" opacity="0.3"></path>
  <circle cx="96" cy="80" r="7" fill="#C9A961"></circle>
  <text x="96" y="18" text-anchor="middle" font-family="&#39;Helvetica Neue&#39;, Helvetica, Arial, sans-serif" font-size="12" font-weight="300" fill="#C9A961">N</text>
</svg>